<?xml version="1.0" encoding="utf-8"?>
<!-- Generator: Adobe Illustrator 25.0.1, SVG Export Plug-In . SVG Version: 6.00 Build 0)  -->
<svg version="1.1" xmlns="http://www.w3.org/2000/svg" xmlns:xlink="http://www.w3.org/1999/xlink" x="0px" y="0px"
	 viewBox="0 0 1791 677" style="enable-background:new 0 0 1791 677;" xml:space="preserve">
<style type="text/css">
	.st0{fill:#00BD99;}
	.st1{fill:#269B89;}
	.st2{fill:none;stroke:#269B89;stroke-width:25;stroke-miterlimit:10;}
</style>
<g id="Capa_3">
</g>
<g id="Capa_2">
	<g>
		<g>
			<path class="st0" d="M759.9,292.6c3.5-2.7,6.4-2.7,8.5,0l13.3,22.6c1.4,1.6,1.9,3,1.6,4.1c-0.4,1.2-1.3,2.4-2.9,3.6
				c-7.6,5.7-16.1,10.2-25.5,13.6c-9.4,3.4-20.1,5.1-32.2,5.1c-14,0-27.2-2.7-39.6-8c-12.4-5.3-23.3-12.6-32.6-21.8
				c-9.3-9.2-16.6-20-21.9-32.4c-5.3-12.4-8-25.6-8-39.6c0-14.2,2.7-27.4,8-39.6c5.3-12.2,12.6-22.9,21.9-32.2
				c9.3-9.2,20.2-16.4,32.6-21.7c12.4-5.2,25.6-7.8,39.6-7.8c12.1,0,22.8,1.6,32.2,4.9c9.4,3.3,18,7.8,25.8,13.4
				c1.4,1.2,2.1,2.5,2.1,3.7c0,1.2-0.2,2.2-0.5,2.9l-14.1,23.9c-1.6,2.1-4.1,2.2-7.4,0.3c-6.2-3.9-12.3-6.9-18.2-9
				c-5.9-2.1-12.5-3.2-19.8-3.2c-9,0-17.4,1.6-25,4.9c-7.6,3.3-14.2,7.8-19.8,13.7c-5.6,5.8-10,12.7-13.2,20.5
				c-3.2,7.8-4.8,16.2-4.8,25.3c0,9,1.6,17.5,4.8,25.4c3.2,7.9,7.6,14.8,13.2,20.7c5.6,5.9,12.2,10.6,19.8,14.1
				c7.6,3.5,16,5.2,25,5.2c7.3,0,14.1-1.2,20.6-3.6C749.8,299.1,755.3,296.2,759.9,292.6z"/>
			<path class="st0" d="M817.9,333.3V146.7c0-1.4,0.4-2.7,1.2-3.7c0.8-1.1,2.1-1.6,3.9-1.6h84.5c9,0,17.4,1.8,25.1,5.4
				c7.7,3.6,14.3,8.5,19.8,14.5c5.5,6,9.8,12.9,12.9,20.7c3.1,7.8,4.7,15.9,4.7,24.2c0,11.2-3.1,21.7-9.2,31.5
				c-6.1,9.8-14.2,17.7-24.3,23.5l36.2,71.8c0.7,1.2,0.8,2.5,0.1,3.7c-0.6,1.2-1.8,1.9-3.6,1.9h-34.3c-2.7,0-4.7-1.5-6.1-4.5
				l-31.6-63.8h-40.4v63c0,3.5-1.8,5.3-5.3,5.3h-28.4C819.5,338.6,817.9,336.8,817.9,333.3z M898.1,175.6h-41.5v59.5h41.5
				c9.2,0,16.9-2.8,23-8.4c6.1-5.6,9.2-12.7,9.2-21.4c0-4.3-0.8-8.2-2.4-11.8c-1.6-3.6-3.9-6.8-6.8-9.4c-2.9-2.7-6.3-4.7-10.2-6.2
				C907,176.4,902.8,175.6,898.1,175.6z"/>
			<path class="st0" d="M996.2,333.3V146.7c0-3.5,1.7-5.3,5.1-5.3h130c3.5,0,5.3,1.8,5.3,5.3v25.8c0,3.5-1.8,5.3-5.3,5.3h-96.2v40.1
				h73.4c3.9,0,5.8,1.8,5.8,5.3v25.3c0,3.5-2,5.3-5.8,5.3h-73.4v48.6h98.6c3.7,0,5.6,1.8,5.6,5.3v25.5c0,3.5-1.9,5.3-5.6,5.3h-132.4
				C997.9,338.6,996.2,336.8,996.2,333.3z M1097.5,82.1l-12.2,27.9c-1.4,3.7-3.7,5.6-6.9,5.6h-19.1c-1.8,0-2.9-0.3-3.5-0.8
				c-0.5-0.5-0.8-1.4-0.8-2.7c0-0.7,0.1-1.4,0.4-2.1c0.3-0.7,0.6-1.7,0.9-2.9l11.7-27.1c1.9-3.7,4.3-5.6,7.2-5.6h19.9
				c2.5,0,3.7,0.9,3.7,2.7C1098.9,78.4,1098.4,80.1,1097.5,82.1z"/>
			<path class="st0" d="M1166.9,333.3V146.7c0-3.5,1.8-5.3,5.3-5.3h63.5c12.6,0,24.9,2.5,36.8,7.6s22.6,12,31.9,20.9
				c9.3,8.9,16.8,19.3,22.5,31.4c5.7,12.1,8.5,25,8.5,38.8c0,13.3-2.5,25.8-7.6,37.6c-5.1,11.8-12.1,22.1-21,31
				c-9,8.9-19.4,16-31.4,21.3c-12,5.3-24.9,8.2-38.7,8.8h-64.6C1168.7,338.6,1166.9,336.8,1166.9,333.3z M1296.4,240
				c0-8.7-1.6-16.8-4.9-24.5c-3.3-7.6-7.8-14.3-13.4-19.9c-5.7-5.7-12.5-10.1-20.3-13.4c-7.9-3.3-16.3-4.9-25.4-4.9H1206v125.5h26.3
				c9,0,17.5-1.6,25.4-4.9c7.9-3.3,14.7-7.8,20.3-13.4c5.7-5.7,10.1-12.3,13.4-19.9C1294.7,256.8,1296.4,248.7,1296.4,240z"/>
			<path class="st0" d="M1365,333.3V146.9c0-3.7,1.8-5.6,5.3-5.6h28.7c3.4,0,5.1,1.9,5.1,5.6v186.4c0,3.5-1.7,5.3-5.1,5.3h-28.7
				C1366.7,338.6,1365,336.8,1365,333.3z"/>
			<path class="st0" d="M1431.2,171.7v-25.3c0-3.4,1.7-5.1,5.1-5.1h139.6c3.5,0,5.3,1.7,5.3,5.1v25.3c0,3.5-1.8,5.3-5.3,5.3h-51
				v156.3c0,3.5-1.7,5.3-5.1,5.3H1491c-3.4,0-5.1-1.8-5.1-5.3V177h-49.7C1432.8,177,1431.2,175.2,1431.2,171.7z"/>
			<path class="st0" d="M1783.1,240c0,14-2.7,27.2-8,39.5c-5.3,12.3-12.6,23-21.8,32.2c-9.2,9.1-20,16.3-32.4,21.7
				c-12.4,5.3-25.6,8-39.6,8c-14,0-27.2-2.7-39.5-8c-12.3-5.3-23-12.5-32.2-21.7c-9.1-9.1-16.3-19.8-21.5-32.2
				c-5.2-12.3-7.8-25.5-7.8-39.5c0-14.2,2.6-27.4,7.8-39.7c5.2-12.3,12.4-23,21.5-32.2c9.1-9.1,19.8-16.3,32.2-21.7
				c12.3-5.3,25.5-8,39.5-8c14,0,27.2,2.7,39.6,8c12.4,5.3,23.2,12.5,32.4,21.7c9.2,9.1,16.5,19.9,21.8,32.2
				C1780.5,212.6,1783.1,225.8,1783.1,240z M1744.1,240c0-9-1.6-17.5-4.8-25.3c-3.2-7.8-7.6-14.6-13.2-20.3
				c-5.6-5.8-12.2-10.3-19.8-13.7c-7.6-3.4-16-5.1-25-5.1c-8.9,0-17.1,1.7-24.7,5.1c-7.6,3.4-14.2,7.9-19.8,13.7
				c-5.6,5.8-9.9,12.5-13,20.3c-3.1,7.8-4.7,16.2-4.7,25.3c0,8.9,1.5,17.2,4.7,25c3.1,7.8,7.4,14.6,13,20.3
				c5.6,5.8,12.2,10.3,19.8,13.7c7.6,3.4,15.9,5.1,24.7,5.1c9,0,17.4-1.7,25-5.1c7.6-3.4,14.2-7.9,19.8-13.7
				c5.6-5.8,10-12.5,13.2-20.3C1742.5,257.2,1744.1,248.8,1744.1,240z"/>
			<path class="st1" d="M626.2,574.4c-1.4-1.6-2.5-3.2-3.2-4.8c-0.7-1.6-0.1-3.4,1.9-5.3l17.8-17.5c1.6-1.4,3.1-1.9,4.7-1.5
				c1.5,0.4,3.1,1.4,4.7,2.8c2.7,2.7,5.6,5.4,8.9,8.1c3.3,2.8,6.8,5.2,10.6,7.4c3.8,2.2,7.9,4,12.4,5.3c4.4,1.3,9.1,2,14.1,2
				c5.3,0,10-0.7,14.1-2.1c4.1-1.4,7.6-3.3,10.5-5.7s5.1-5.1,6.6-8.2c1.5-3.1,2.3-6.3,2.3-9.7c0-4.3-1.3-7.8-3.9-10.8
				c-2.6-2.9-5.7-5.4-9.4-7.4c-3.7-2-7.8-3.7-12.1-5.1c-4.3-1.3-8.3-2.4-11.8-3.3c-21.4-6.4-37.8-14.2-49-23.5
				c-11.3-9.3-16.9-21.5-16.9-36.6c0-8.1,1.7-15.6,5.2-22.3c3.5-6.7,8.3-12.5,14.6-17.4c6.3-4.9,13.9-8.6,22.7-11.3
				c8.9-2.7,18.6-4,29.2-4c11.7,0,22.9,2.8,33.6,8.2c10.7,5.5,20.1,12.2,28,20.2c3.2,3.4,3.1,6.8-0.3,10.4L746.9,458
				c-1.8,1.6-3.5,2.1-5.1,1.5c-1.6-0.6-3.3-1.6-5.1-3.1c-2.1-1.8-4.6-3.7-7.3-5.8c-2.7-2.1-5.8-4.1-9-6c-3.3-1.9-6.7-3.4-10.4-4.7
				c-3.6-1.2-7.4-1.9-11.3-1.9c-3.4,0-6.9,0.3-10.5,0.8c-3.6,0.5-6.9,1.6-9.8,3.1c-2.9,1.5-5.4,3.6-7.3,6.4c-2,2.8-2.9,6.4-2.9,11
				c0,3.4,0.9,6.3,2.8,8.8c1.9,2.5,4.5,4.7,8,6.5c3.5,1.9,7.5,3.6,12.2,5.2c4.7,1.6,9.9,3.2,15.6,4.8c9,2.7,17.5,5.6,25.5,8.9
				c8,3.3,14.9,7.3,20.9,12.1c5.9,4.8,10.7,10.5,14.2,17c3.5,6.6,5.3,14.4,5.3,23.7c0,9.2-2,17.6-6.1,25.1
				c-4.1,7.5-9.5,14-16.3,19.3c-6.8,5.3-14.7,9.4-23.7,12.2c-9,2.8-18.2,4.3-27.8,4.3c-13.8,0-27.1-3-39.9-9
				C646.1,592,635.2,584.2,626.2,574.4z"/>
			<path class="st1" d="M800.8,599.1V412.5c0-3.5,1.7-5.3,5.1-5.3h130c3.5,0,5.3,1.8,5.3,5.3v25.8c0,3.5-1.8,5.3-5.3,5.3h-96.2v40.1
				H913c3.9,0,5.8,1.8,5.8,5.3v25.3c0,3.5-2,5.3-5.8,5.3h-73.4v48.7h98.6c3.7,0,5.6,1.8,5.6,5.3v25.5c0,3.5-1.9,5.3-5.6,5.3H805.9
				C802.5,604.5,800.8,602.7,800.8,599.1z"/>
			<path class="st1" d="M1055.8,571.2c5.1,0,10.4-0.7,15.8-2.1c5.4-1.4,10.2-3.7,14.5-6.9v-40.7c0-3.5,1.8-5.3,5.3-5.3h23.7
				c1.2,0,2.4,0.4,3.5,1.1c1.1,0.7,1.6,2.1,1.6,4.3v60.3c0,2.3-0.9,4.3-2.7,5.8c-8,5.5-17.2,10.1-27.8,13.8
				c-10.5,3.7-21.8,5.6-33.9,5.6c-14,0-27.2-2.7-39.6-8c-12.4-5.3-23.3-12.6-32.6-21.8c-9.3-9.2-16.6-20-21.9-32.4
				c-5.3-12.4-8-25.6-8-39.6c0-14,2.7-27.2,8-39.5c5.3-12.3,12.5-23,21.7-32.2c9.1-9.1,19.9-16.3,32.3-21.5
				c12.4-5.2,25.6-7.8,39.6-7.8c12,0,22.9,1.7,32.4,5.2s18.6,8.4,27.1,14.8c1.4,1.1,2.2,2.2,2.4,3.5c0.2,1.2-0.2,2.4-1.1,3.5
				l-15.7,22.6c-0.9,0.9-2,1.5-3.2,1.9c-1.2,0.4-2.7,0-4.3-1.1c-5.1-3.9-10.8-7-16.9-9.4s-12.9-3.6-20.3-3.6
				c-9.2,0-17.8,1.6-25.7,4.9c-7.9,3.3-14.7,7.8-20.5,13.6c-5.8,5.8-10.3,12.5-13.6,20.2c-3.3,7.7-4.9,16.1-4.9,25.1
				c0,9,1.7,17.6,5.1,25.7c3.4,8.1,7.9,15.1,13.7,21.1c5.8,6,12.6,10.8,20.5,14.2C1038.3,569.8,1046.8,571.4,1055.8,571.2z"/>
			<path class="st1" d="M1192.7,413v113.5c0,6.2,1,12.1,3.1,17.5c2,5.5,4.9,10.3,8.6,14.4c3.7,4.1,8.2,7.3,13.4,9.7
				c5.2,2.4,10.9,3.6,17.1,3.6c6.2,0,11.9-1.2,17-3.6c5.1-2.4,9.6-5.6,13.3-9.7c3.7-4.1,6.6-8.9,8.6-14.4c2-5.5,3.1-11.3,3.1-17.5
				V413c0-1.6,0.6-3,1.7-4.1c1.2-1.2,2.6-1.7,4.4-1.7h26.3c1.6,0,3.1,0.5,4.5,1.6c1.4,1.1,2.1,2.5,2.1,4.3v113.5
				c0,11.2-2.1,21.7-6.4,31.5c-4.3,9.8-10.1,18.4-17.4,25.8c-7.4,7.4-16,13.2-25.8,17.4c-9.8,4.3-20.3,6.4-31.5,6.4
				c-11.2,0-21.7-2.1-31.6-6.4c-9.9-4.3-18.6-10.1-25.9-17.4c-7.4-7.4-13.2-16-17.4-25.8s-6.4-20.3-6.4-31.5V413
				c0-1.4,0.5-2.7,1.6-4c1.1-1.2,2.4-1.9,4-1.9h27.4c1.4,0,2.8,0.6,4.1,1.7C1192,410.1,1192.7,411.4,1192.7,413z"/>
			<path class="st1" d="M1356.5,599.1V412.5c0-1.4,0.4-2.7,1.2-3.7c0.8-1.1,2.1-1.6,3.9-1.6h84.5c9,0,17.4,1.8,25.1,5.4
				c7.7,3.6,14.3,8.5,19.8,14.5c5.5,6,9.8,12.9,12.9,20.7c3.1,7.8,4.7,15.9,4.7,24.2c0,11.2-3.1,21.7-9.2,31.5s-14.2,17.7-24.3,23.5
				l36.2,71.8c0.7,1.2,0.8,2.5,0.1,3.7c-0.6,1.2-1.8,1.9-3.6,1.9h-34.3c-2.7,0-4.7-1.5-6.1-4.5l-31.6-63.8h-40.4v63
				c0,3.5-1.8,5.3-5.3,5.3h-28.4C1358.1,604.5,1356.5,602.7,1356.5,599.1z M1436.7,441.5h-41.5V501h41.5c9.2,0,16.9-2.8,23-8.4
				s9.2-12.7,9.2-21.4c0-4.3-0.8-8.2-2.4-11.8c-1.6-3.6-3.9-6.8-6.8-9.4c-2.9-2.7-6.3-4.7-10.2-6.2
				C1445.6,442.2,1441.4,441.5,1436.7,441.5z"/>
			<path class="st1" d="M1727.8,505.8c0,14-2.7,27.2-8,39.5c-5.3,12.3-12.6,23-21.8,32.2c-9.2,9.1-20,16.3-32.4,21.7
				c-12.4,5.3-25.6,8-39.6,8c-14,0-27.2-2.7-39.5-8c-12.3-5.3-23-12.5-32.2-21.7c-9.1-9.1-16.3-19.8-21.5-32.2
				c-5.2-12.3-7.8-25.5-7.8-39.5c0-14.2,2.6-27.4,7.8-39.7c5.2-12.3,12.4-23,21.5-32.2c9.1-9.1,19.8-16.3,32.2-21.7
				c12.3-5.3,25.5-8,39.5-8c14,0,27.2,2.7,39.6,8c12.4,5.3,23.2,12.5,32.4,21.7c9.2,9.1,16.5,19.9,21.8,32.2
				C1725.2,478.4,1727.8,491.6,1727.8,505.8z M1688.8,505.8c0-9-1.6-17.5-4.8-25.3c-3.2-7.8-7.6-14.6-13.2-20.3
				c-5.6-5.8-12.2-10.3-19.8-13.7c-7.6-3.4-16-5.1-25-5.1c-8.9,0-17.1,1.7-24.7,5.1c-7.6,3.4-14.2,7.9-19.8,13.7
				c-5.6,5.8-9.9,12.5-13,20.3c-3.1,7.8-4.7,16.2-4.7,25.3c0,8.9,1.5,17.2,4.7,25c3.1,7.8,7.4,14.6,13,20.3
				c5.6,5.8,12.2,10.3,19.8,13.7c7.6,3.4,15.9,5.1,24.7,5.1c9,0,17.4-1.7,25-5.1c7.6-3.4,14.2-7.9,19.8-13.7
				c5.6-5.8,10-12.5,13.2-20.3C1687.2,523,1688.8,514.7,1688.8,505.8z"/>
		</g>
		<g>
			<g>
				<path class="st0" d="M289.9,141.5c53.2,0,103.1,20.7,140.7,58.3s58.3,87.6,58.3,140.7s-20.7,103.1-58.3,140.7
					s-87.6,58.3-140.7,58.3s-103.1-20.7-140.7-58.3s-58.3-87.6-58.3-140.7s20.7-103.1,58.3-140.7S236.7,141.5,289.9,141.5
					 M289.9,61.5c-154.1,0-279,124.9-279,279s124.9,279,279,279s279-124.9,279-279S444,61.5,289.9,61.5L289.9,61.5z"/>
			</g>
			<g>
				<path class="st1" d="M106.3,527.4c-3.9-4.3-6.7-8.7-8.7-13c-1.9-4.3-0.2-9.1,5.1-14.4l48.4-47.7c4.3-3.8,8.5-5.2,12.6-4
					c4.1,1.2,8.3,3.7,12.6,7.6c7.2,7.2,15.3,14.6,24.2,22c8.9,7.5,18.5,14.2,28.9,20.2c10.3,6,21.5,10.8,33.6,14.4
					c12,3.6,24.8,5.4,38.3,5.4c14.4,0,27.2-1.9,38.3-5.8c11.1-3.8,20.6-9,28.5-15.5s14-14,18.1-22.4c4.1-8.4,6.1-17.2,6.1-26.4
					c0-11.6-3.5-21.3-10.5-29.3c-7-7.9-15.5-14.7-25.6-20.2c-10.1-5.5-21.1-10.1-32.9-13.7c-11.8-3.6-22.5-6.6-32.1-9
					C233,358.3,188.5,337,158,311.8c-30.6-25.3-45.9-58.4-45.9-99.3c0-22.1,4.7-42.4,14.1-60.7c9.4-18.3,22.6-34.1,39.7-47.3
					C183,91.2,203.6,81,227.7,73.8c24.1-7.2,50.6-10.8,79.5-10.8c31.8,0,62.2,7.5,91.4,22.4c29.1,14.9,54.5,33.2,76.2,54.9
					c8.7,9.2,8.4,18.5-0.7,28.2L434.2,211c-4.8,4.3-9.4,5.7-13.7,4c-4.3-1.7-8.9-4.4-13.7-8.3c-5.8-4.8-12.4-10.1-19.9-15.9
					c-7.5-5.8-15.7-11.2-24.6-16.3c-8.9-5.1-18.3-9.3-28.2-12.6c-9.9-3.4-20.1-5.1-30.7-5.1c-9.2,0-18.7,0.7-28.5,2.2
					c-9.9,1.4-18.8,4.2-26.7,8.3c-7.9,4.1-14.6,9.9-19.9,17.3c-5.3,7.5-7.9,17.5-7.9,30c0,9.2,2.5,17.1,7.6,23.8
					c5.1,6.7,12.3,12.6,21.7,17.7c9.4,5.1,20.5,9.8,33.2,14.1c12.8,4.3,26.8,8.7,42.3,13c24.6,7.2,47.7,15.3,69.3,24.2
					c21.7,8.9,40.6,19.9,56.7,32.9c16.1,13,29,28.4,38.6,46.2c9.6,17.8,14.4,39.3,14.4,64.3c0,25-5.5,47.8-16.6,68.3
					c-11.1,20.5-25.9,37.9-44.4,52.4c-18.5,14.4-40,25.5-64.3,33.2c-24.3,7.7-49.5,11.6-75.5,11.6c-37.6,0-73.7-8.2-108.3-24.6
					C160.5,575.3,130.9,553.8,106.3,527.4z"/>
			</g>
			<path class="st2" d="M249.9,661L249.9,661c-0.3,0-0.6-0.2-0.6-0.5v-639c0-0.3,0.2-0.5,0.5-0.5h0.1c0.3,0,0.5,0.2,0.5,0.5v639
				C250.4,660.8,250.2,661,249.9,661z"/>
			<path class="st2" d="M329.6,660.8L329.6,660.8c-0.3,0-0.6-0.2-0.6-0.5v-639c0-0.3,0.2-0.5,0.5-0.5h0.1c0.3,0,0.5,0.2,0.5,0.5v639
				C330.1,660.6,329.9,660.8,329.6,660.8z"/>
		</g>
	</g>
</g>
</svg>
